<svg id="wave" style="transform:rotate(0deg); transition: 0.3s" viewBox="0 0 1440 130" version="1.1" xmlns="http://www.w3.org/2000/svg"><defs><linearGradient id="sw-gradient-0" x1="0" x2="0" y1="1" y2="0"><stop stop-color="rgba(240.023, 240.023, 240.023, 1)" offset="0%"></stop><stop stop-color="rgba(255, 255, 255, 1)" offset="100%"></stop></linearGradient></defs><path style="transform:translate(0, 0px); opacity:1" fill="url(#sw-gradient-0)" d="M0,26L120,32.5C240,39,480,52,720,67.2C960,82,1200,100,1440,104C1680,108,1920,100,2160,91C2400,82,2640,74,2880,73.7C3120,74,3360,82,3600,91C3840,100,4080,108,4320,106.2C4560,104,4800,91,5040,86.7C5280,82,5520,87,5760,73.7C6000,61,6240,30,6480,17.3C6720,4,6960,9,7200,26C7440,43,7680,74,7920,80.2C8160,87,8400,69,8640,67.2C8880,65,9120,78,9360,80.2C9600,82,9840,74,10080,65C10320,56,10560,48,10800,54.2C11040,61,11280,82,11520,93.2C11760,104,12000,104,12240,93.2C12480,82,12720,61,12960,43.3C13200,26,13440,13,13680,13C13920,13,14160,26,14400,39C14640,52,14880,65,15120,75.8C15360,87,15600,95,15840,93.2C16080,91,16320,78,16560,60.7C16800,43,17040,22,17160,10.8L17280,0L17280,130L17160,130C17040,130,16800,130,16560,130C16320,130,16080,130,15840,130C15600,130,15360,130,15120,130C14880,130,14640,130,14400,130C14160,130,13920,130,13680,130C13440,130,13200,130,12960,130C12720,130,12480,130,12240,130C12000,130,11760,130,11520,130C11280,130,11040,130,10800,130C10560,130,10320,130,10080,130C9840,130,9600,130,9360,130C9120,130,8880,130,8640,130C8400,130,8160,130,7920,130C7680,130,7440,130,7200,130C6960,130,6720,130,6480,130C6240,130,6000,130,5760,130C5520,130,5280,130,5040,130C4800,130,4560,130,4320,130C4080,130,3840,130,3600,130C3360,130,3120,130,2880,130C2640,130,2400,130,2160,130C1920,130,1680,130,1440,130C1200,130,960,130,720,130C480,130,240,130,120,130L0,130Z"></path><defs><linearGradient id="sw-gradient-1" x1="0" x2="0" y1="1" y2="0"><stop stop-color="rgba(251.407, 251.407, 251.407, 1)" offset="0%"></stop><stop stop-color="rgba(255, 255, 255, 1)" offset="100%"></stop></linearGradient></defs><path style="transform:translate(0, 50px); opacity:0.9" fill="url(#sw-gradient-1)" d="M0,78L120,69.3C240,61,480,43,720,39C960,35,1200,43,1440,47.7C1680,52,1920,52,2160,54.2C2400,56,2640,61,2880,65C3120,69,3360,74,3600,69.3C3840,65,4080,52,4320,54.2C4560,56,4800,74,5040,84.5C5280,95,5520,100,5760,91C6000,82,6240,61,6480,56.3C6720,52,6960,65,7200,65C7440,65,7680,52,7920,43.3C8160,35,8400,30,8640,43.3C8880,56,9120,87,9360,86.7C9600,87,9840,56,10080,43.3C10320,30,10560,35,10800,43.3C11040,52,11280,65,11520,67.2C11760,69,12000,61,12240,67.2C12480,74,12720,95,12960,99.7C13200,104,13440,91,13680,80.2C13920,69,14160,61,14400,47.7C14640,35,14880,17,15120,15.2C15360,13,15600,26,15840,43.3C16080,61,16320,82,16560,93.2C16800,104,17040,104,17160,104L17280,104L17280,130L17160,130C17040,130,16800,130,16560,130C16320,130,16080,130,15840,130C15600,130,15360,130,15120,130C14880,130,14640,130,14400,130C14160,130,13920,130,13680,130C13440,130,13200,130,12960,130C12720,130,12480,130,12240,130C12000,130,11760,130,11520,130C11280,130,11040,130,10800,130C10560,130,10320,130,10080,130C9840,130,9600,130,9360,130C9120,130,8880,130,8640,130C8400,130,8160,130,7920,130C7680,130,7440,130,7200,130C6960,130,6720,130,6480,130C6240,130,6000,130,5760,130C5520,130,5280,130,5040,130C4800,130,4560,130,4320,130C4080,130,3840,130,3600,130C3360,130,3120,130,2880,130C2640,130,2400,130,2160,130C1920,130,1680,130,1440,130C1200,130,960,130,720,130C480,130,240,130,120,130L0,130Z"></path></svg>