<svg id="wave" style="transform:rotate(0deg); transition: 0.3s" viewBox="0 0 1440 180" version="1.1" xmlns="http://www.w3.org/2000/svg"><defs><linearGradient id="sw-gradient-0" x1="0" x2="0" y1="1" y2="0"><stop stop-color="rgba(255, 255, 255, 1)" offset="0%"></stop><stop stop-color="rgba(228.568, 224.925, 216.873, 1)" offset="100%"></stop></linearGradient></defs><path style="transform:translate(0, 0px); opacity:1" fill="url(#sw-gradient-0)" d="M0,108L80,114C160,120,320,132,480,129C640,126,800,108,960,90C1120,72,1280,54,1440,51C1600,48,1760,60,1920,69C2080,78,2240,84,2400,75C2560,66,2720,42,2880,45C3040,48,3200,78,3360,75C3520,72,3680,36,3840,45C4000,54,4160,108,4320,123C4480,138,4640,114,4800,102C4960,90,5120,90,5280,96C5440,102,5600,114,5760,105C5920,96,6080,66,6240,72C6400,78,6560,120,6720,135C6880,150,7040,138,7200,126C7360,114,7520,102,7680,99C7840,96,8000,102,8160,114C8320,126,8480,144,8640,147C8800,150,8960,138,9120,138C9280,138,9440,150,9600,147C9760,144,9920,126,10080,123C10240,120,10400,132,10560,117C10720,102,10880,60,11040,45C11200,30,11360,42,11440,48L11520,54L11520,180L11440,180C11360,180,11200,180,11040,180C10880,180,10720,180,10560,180C10400,180,10240,180,10080,180C9920,180,9760,180,9600,180C9440,180,9280,180,9120,180C8960,180,8800,180,8640,180C8480,180,8320,180,8160,180C8000,180,7840,180,7680,180C7520,180,7360,180,7200,180C7040,180,6880,180,6720,180C6560,180,6400,180,6240,180C6080,180,5920,180,5760,180C5600,180,5440,180,5280,180C5120,180,4960,180,4800,180C4640,180,4480,180,4320,180C4160,180,4000,180,3840,180C3680,180,3520,180,3360,180C3200,180,3040,180,2880,180C2720,180,2560,180,2400,180C2240,180,2080,180,1920,180C1760,180,1600,180,1440,180C1280,180,1120,180,960,180C800,180,640,180,480,180C320,180,160,180,80,180L0,180Z"></path></svg>