<?xml version="1.0" standalone="no"?>
<svg xmlns:xlink="http://www.w3.org/1999/xlink" id="wave" style="transform:rotate(0deg); transition: 0.3s" viewBox="0 0 1440 130" version="1.1" xmlns="http://www.w3.org/2000/svg"><defs><linearGradient id="sw-gradient-0" x1="0" x2="0" y1="1" y2="0"><stop stop-color="rgba(226.362, 225.335, 225.004, 1)" offset="0%"/><stop stop-color="rgba(255, 255, 255, 1)" offset="100%"/></linearGradient></defs><path style="transform:translate(0, 0px); opacity:1" fill="url(#sw-gradient-0)" d="M0,26L180,26L360,117L540,52L720,39L900,91L1080,104L1260,117L1440,0L1620,117L1800,13L1980,104L2160,104L2340,117L2520,13L2700,78L2880,65L3060,0L3240,13L3420,104L3600,117L3780,78L3960,78L4140,52L4320,78L4320,130L4140,130L3960,130L3780,130L3600,130L3420,130L3240,130L3060,130L2880,130L2700,130L2520,130L2340,130L2160,130L1980,130L1800,130L1620,130L1440,130L1260,130L1080,130L900,130L720,130L540,130L360,130L180,130L0,130Z"/><defs><linearGradient id="sw-gradient-1" x1="0" x2="0" y1="1" y2="0"><stop stop-color="rgba(251.407, 251.407, 251.407, 1)" offset="0%"/><stop stop-color="rgba(255, 255, 255, 1)" offset="100%"/></linearGradient></defs><path style="transform:translate(0, 50px); opacity:0.9" fill="url(#sw-gradient-1)" d="M0,26L180,0L360,52L540,91L720,65L900,52L1080,78L1260,91L1440,65L1620,104L1800,65L1980,104L2160,26L2340,13L2520,78L2700,39L2880,91L3060,78L3240,78L3420,39L3600,0L3780,104L3960,78L4140,117L4320,52L4320,130L4140,130L3960,130L3780,130L3600,130L3420,130L3240,130L3060,130L2880,130L2700,130L2520,130L2340,130L2160,130L1980,130L1800,130L1620,130L1440,130L1260,130L1080,130L900,130L720,130L540,130L360,130L180,130L0,130Z"/></svg>