<svg id="visual" viewBox="0 0 900 450" width="900" height="450" xmlns="http://www.w3.org/2000/svg" xmlns:xlink="http://www.w3.org/1999/xlink" version="1.1"><path d="M0 385L25 386.7C50 388.3 100 391.7 150 395C200 398.3 250 401.7 300 400C350 398.3 400 391.7 450 387.5C500 383.3 550 381.7 600 383.8C650 386 700 392 750 392.5C800 393 850 388 875 385.5L900 383L900 451L875 451C850 451 800 451 750 451C700 451 650 451 600 451C550 451 500 451 450 451C400 451 350 451 300 451C250 451 200 451 150 451C100 451 50 451 25 451L0 451Z" fill="#e5e5e5"></path><path d="M0 411L25 410C50 409 100 407 150 405.7C200 404.3 250 403.7 300 404.5C350 405.3 400 407.7 450 410.7C500 413.7 550 417.3 600 415.8C650 414.3 700 407.7 750 405C800 402.3 850 403.7 875 404.3L900 405L900 451L875 451C850 451 800 451 750 451C700 451 650 451 600 451C550 451 500 451 450 451C400 451 350 451 300 451C250 451 200 451 150 451C100 451 50 451 25 451L0 451Z" fill="#f2f2f2"></path><path d="M0 423L25 422.5C50 422 100 421 150 421.7C200 422.3 250 424.7 300 426C350 427.3 400 427.7 450 427C500 426.3 550 424.7 600 425.3C650 426 700 429 750 429.3C800 429.7 850 427.3 875 426.2L900 425L900 451L875 451C850 451 800 451 750 451C700 451 650 451 600 451C550 451 500 451 450 451C400 451 350 451 300 451C250 451 200 451 150 451C100 451 50 451 25 451L0 451Z" fill="#ffffff"></path></svg>