<?xml version="1.0" standalone="no"?>
<svg xmlns:xlink="http://www.w3.org/1999/xlink" id="wave" style="transform:rotate(0deg); transition: 0.3s" viewBox="0 0 1440 130" version="1.1" xmlns="http://www.w3.org/2000/svg"><defs><linearGradient id="sw-gradient-0" x1="0" x2="0" y1="1" y2="0"><stop stop-color="rgba(255, 255, 255, 1)" offset="0%"/><stop stop-color="rgba(255, 255, 255, 1)" offset="100%"/></linearGradient></defs><path style="transform:translate(0, 0px); opacity:1" fill="url(#sw-gradient-0)" d="M0,78L144,0L288,0L432,39L576,65L720,52L864,117L1008,52L1152,78L1296,91L1440,78L1584,26L1728,52L1872,39L2016,65L2160,26L2304,39L2448,117L2592,52L2736,65L2880,26L3024,91L3168,13L3312,0L3456,117L3456,130L3312,130L3168,130L3024,130L2880,130L2736,130L2592,130L2448,130L2304,130L2160,130L2016,130L1872,130L1728,130L1584,130L1440,130L1296,130L1152,130L1008,130L864,130L720,130L576,130L432,130L288,130L144,130L0,130Z"/></svg>