<?xml version="1.0" standalone="no"?>
<svg xmlns:xlink="http://www.w3.org/1999/xlink" id="wave" style="transform:rotate(0deg); transition: 0.3s" viewBox="0 0 1440 120" version="1.1" xmlns="http://www.w3.org/2000/svg"><defs><linearGradient id="sw-gradient-0" x1="0" x2="0" y1="1" y2="0"><stop stop-color="rgba(255, 255, 255, 1)" offset="0%"/><stop stop-color="rgba(255, 255, 255, 1)" offset="100%"/></linearGradient></defs><path style="transform:translate(0, 0px); opacity:1" fill="url(#sw-gradient-0)" d="M0,36L20,32C40,28,80,20,120,26C160,32,200,52,240,50C280,48,320,24,360,18C400,12,440,24,480,30C520,36,560,36,600,42C640,48,680,60,720,60C760,60,800,48,840,46C880,44,920,52,960,58C1000,64,1040,68,1080,74C1120,80,1160,88,1200,84C1240,80,1280,64,1320,64C1360,64,1400,80,1440,76C1480,72,1520,48,1560,46C1600,44,1640,64,1680,68C1720,72,1760,60,1800,48C1840,36,1880,24,1920,32C1960,40,2000,68,2040,78C2080,88,2120,80,2160,64C2200,48,2240,24,2280,26C2320,28,2360,56,2400,56C2440,56,2480,28,2520,32C2560,36,2600,72,2640,76C2680,80,2720,52,2760,44C2800,36,2840,48,2860,54L2880,60L2880,120L2860,120C2840,120,2800,120,2760,120C2720,120,2680,120,2640,120C2600,120,2560,120,2520,120C2480,120,2440,120,2400,120C2360,120,2320,120,2280,120C2240,120,2200,120,2160,120C2120,120,2080,120,2040,120C2000,120,1960,120,1920,120C1880,120,1840,120,1800,120C1760,120,1720,120,1680,120C1640,120,1600,120,1560,120C1520,120,1480,120,1440,120C1400,120,1360,120,1320,120C1280,120,1240,120,1200,120C1160,120,1120,120,1080,120C1040,120,1000,120,960,120C920,120,880,120,840,120C800,120,760,120,720,120C680,120,640,120,600,120C560,120,520,120,480,120C440,120,400,120,360,120C320,120,280,120,240,120C200,120,160,120,120,120C80,120,40,120,20,120L0,120Z"/></svg>