<svg id="visual" viewBox="0 0 960 540" width="960" height="540" xmlns="http://www.w3.org/2000/svg" xmlns:xlink="http://www.w3.org/1999/xlink" version="1.1"><path d="M0 508L53 509L107 503L160 508L213 497L267 508L320 517L373 502L427 525L480 498L533 518L587 500L640 508L693 515L747 514L800 512L853 506L907 519L960 496L960 541L907 541L853 541L800 541L747 541L693 541L640 541L587 541L533 541L480 541L427 541L373 541L320 541L267 541L213 541L160 541L107 541L53 541L0 541Z" fill="#FFFFFF" stroke-linecap="square" stroke-linejoin="bevel"></path></svg>